<svg version="1.1" id="Layer_1" xmlns="http://www.w3.org/2000/svg" x="0" y="0" viewBox="0 0 320 320" xml:space="preserve"><style>.st0{fill:#151524}</style><path class="st0" d="M277 27H160c-8.8 0-16 7.2-16 16v41.5h-42.5c-8.8 0-16 7.2-16 16s7.2 16 16 16h102.2V220c0 8.8 7.2 16 16 16s16-7.2 16-16V100.5c0-8.8-7.2-16-16-16H176V59h85v202h-71c-8.8 0-16 7.2-16 16s7.2 16 16 16h87c8.8 0 16-7.2 16-16V43c0-8.8-7.2-16-16-16z"/><path class="st0" d="M176 160c0-8.8-7.2-16-16-16H59V59h38.1c8.8 0 16-7.2 16-16s-7.2-16-16-16H43c-8.8 0-16 7.2-16 16v234c0 8.8 7.2 16 16 16h84.8c8.8 0 16-7.2 16-16s-7.2-16-16-16H59v-85h85v28h-43.6c-8.8 0-16 7.2-16 16s7.2 16 16 16H160c8.8 0 16-7.2 16-16v-60z"/></svg>