<svg version="1.1" id="Layer_1" xmlns="http://www.w3.org/2000/svg" x="0" y="0" viewBox="0 0 322.5 45" xml:space="preserve"><style>.st0{fill:#151524}</style><path class="st0" d="M57.4 32.1h-2.7V18.2l-2.4 13.9h-2.9V32L47 18.2v13.9h-2.7v-18h4.3v.1l2.3 13.6 2.4-13.7h4.1zM66.7 20.6c-.2-.7-.7-1.3-1.2-1.6-.6-.3-1.4-.5-2.5-.5-1.2 0-2.3.1-3.3.3h-.1V21h.1c1.1-.1 2-.2 2.6-.2.7 0 1.2.1 1.5.2.3.1.4.3.5.7.1.4.2 1 .2 1.9v.7c-.8-.1-1.6-.1-2.2-.1-.8 0-1.4.1-1.9.4-.5.3-.8.7-1 1.3-.2.6-.3 1.4-.3 2.4 0 1.4.2 2.5.6 3.1.4.6 1.2.9 2.3.9.6 0 1.1-.2 1.6-.5.4-.3.7-.7.9-1.4l.1 1.6h2.5v-8.3c0-1.3-.2-2.4-.4-3.1zm-2.3 6.3c0 .9-.1 1.7-.2 2.1-.1.3-.3.5-.5.6-.2.1-.5.2-.9.2-.5 0-.8-.1-1-.3-.2-.2-.2-.7-.2-1.4 0-.6 0-1 .1-1.2.1-.2.2-.4.3-.5.2-.1.4-.1.8-.1h1.6v.6zM75.9 32.1h-7.3V30l4.2-9h-4.1v-2.3h7.2l-.1 2.1-4.2 8.9h4.3zM85.2 25.4c0-1.9-.1-3.4-.2-4.2-.1-.9-.5-1.6-1-2-.5-.4-1.4-.7-2.6-.7-1.3 0-2.2.2-2.8.7-.6.5-1 1.2-1.1 2.1-.2.9-.2 2.3-.2 4.1 0 1.8.1 3.2.3 4.1.2.9.6 1.6 1.2 2.1.6.4 1.6.7 2.9.7.6 0 1.2 0 1.9-.1.6-.1 1.2-.2 1.6-.3h.1v-2.1h-.1c-1.1.1-2 .2-2.8.2-.7 0-1.2-.1-1.5-.3-.3-.2-.5-.5-.5-1-.1-.5-.1-1.3-.1-2.4h5.4v-.9zm-2.5-1.1h-2.9c0-1.1.1-1.9.1-2.3.1-.5.2-.8.4-.9.2-.1.5-.2 1-.2.4 0 .7.1.9.2.2.1.3.4.4.9.1.5.1 1.2.1 2.3zM95.6 32.3c-1.4 0-2.4-.2-3-.7-.7-.5-1.1-1.4-1.4-2.7-.3-1.3-.4-3.2-.4-5.8 0-2.6.1-4.5.4-5.8.3-1.3.8-2.2 1.5-2.7s1.8-.7 3.2-.7c.6 0 1.2 0 1.8.1.7.1 1.2.2 1.7.4h.1v2.4h-.1c-.5-.1-1-.2-1.5-.2-.5-.1-.9-.1-1.2-.1-1 0-1.7.1-2 .3-.4.2-.6.7-.8 1.6-.2.9-.2 2.4-.2 4.7 0 2.1 0 3.6.1 4.5.1.9.3 1.5.6 1.7.3.3.7.4 1.4.4.5 0 .9 0 1.2-.1v-5.1h-1.6V22h4.2v9.7h-.1c-.5.2-1.1.3-1.8.4-.8.1-1.5.2-2.1.2zM109.1 25.4c0-1.9-.1-3.4-.2-4.2-.1-.9-.5-1.6-1-2-.5-.4-1.4-.7-2.6-.7-1.3 0-2.2.2-2.8.7-.6.5-1 1.2-1.1 2.1-.2.9-.2 2.3-.2 4.1 0 1.8.1 3.2.3 4.1.2.9.6 1.6 1.2 2.1.6.4 1.6.7 2.9.7.6 0 1.2 0 1.9-.1.6-.1 1.2-.2 1.6-.3h.1v-2.1h-.1c-1.1.1-2 .2-2.8.2-.7 0-1.2-.1-1.5-.3-.3-.2-.5-.5-.5-1-.1-.5-.1-1.3-.1-2.4h5.4v-.9zm-2.5-1.1h-2.9c0-1.1.1-1.9.1-2.3.1-.5.2-.8.4-.9.2-.1.5-.2 1-.2.4 0 .7.1.9.2.2.1.3.4.4.9.1.5.1 1.2.1 2.3zM119 32.1h-2.7v-7.6c0-1.1 0-2-.1-2.4-.1-.4-.2-.7-.3-.9-.2-.1-.5-.2-.9-.2-.5 0-.8.1-1 .4-.2.3-.3.7-.4 1.2-.1.6-.1 1.5-.1 2.8v6.7h-2.7V18.7h2.5l.1 1.7c.4-1.2 1.3-1.9 2.7-1.9.8 0 1.4.2 1.8.5.4.3.7.8.8 1.5.1.7.2 1.6.2 2.8v8.8zM128.7 25.4c0-1.9-.1-3.4-.2-4.2-.1-.9-.5-1.6-1-2-.5-.4-1.4-.7-2.6-.7-1.3 0-2.2.2-2.8.7-.6.5-1 1.2-1.1 2.1-.2.9-.2 2.3-.2 4.1 0 1.8.1 3.2.3 4.1.2.9.6 1.6 1.2 2.1.6.4 1.6.7 2.9.7.6 0 1.2 0 1.9-.1.6-.1 1.2-.2 1.6-.3h.1v-2.1h-.1c-1.1.1-2 .2-2.8.2-.7 0-1.2-.1-1.5-.3-.3-.2-.5-.5-.5-1-.1-.5-.1-1.3-.1-2.4h5.4v-.9zm-2.5-1.1h-2.9c0-1.1.1-1.9.1-2.3.1-.5.2-.8.4-.9.2-.1.5-.2 1-.2.4 0 .7.1.9.2.2.1.3.4.4.9.1.5.1 1.2.1 2.3zM133.1 32.1h-2.7V18.7h2.5l.1 2.3c.2-.9.6-1.5 1-1.9.5-.4 1.1-.6 1.8-.6h.1v2.9h-.1c-1 0-1.7.3-2.1.9-.4.6-.6 1.7-.6 3.2v6.6zM144.1 20.6c-.2-.7-.7-1.3-1.2-1.6-.6-.3-1.4-.5-2.5-.5-1.2 0-2.3.1-3.3.3h-.1V21h.1c1.1-.1 2-.2 2.6-.2.7 0 1.2.1 1.5.2.3.1.4.3.5.7.1.4.2 1 .2 1.9v.7c-.8-.1-1.6-.1-2.2-.1-.8 0-1.4.1-1.9.4-.5.3-.8.7-1 1.3-.2.6-.3 1.4-.3 2.4 0 1.4.2 2.5.6 3.1.4.6 1.2.9 2.3.9.6 0 1.1-.2 1.6-.5.4-.3.7-.7.9-1.4l.1 1.6h2.5v-8.3c-.1-1.3-.2-2.4-.4-3.1zm-2.3 6.3c0 .9-.1 1.7-.2 2.1-.1.3-.3.5-.5.6-.2.1-.5.2-.9.2-.5 0-.8-.1-1-.3-.2-.2-.2-.7-.2-1.4 0-.6 0-1 .1-1.2.1-.2.2-.4.3-.5.2-.1.4-.1.8-.1h1.6v.6zM149.6 32.1h-2.7V21h-1.4v-2.3h1.4v-3.8h2.7v3.8h1.8V21h-1.8zM160.3 21.1c-.2-.9-.6-1.6-1.1-2-.6-.4-1.5-.6-2.8-.6-1.3 0-2.2.2-2.8.6-.6.4-1 1-1.1 2-.2.9-.3 2.4-.3 4.3s.1 3.4.3 4.3c.2.9.6 1.6 1.1 2 .6.4 1.5.6 2.8.6 1.3 0 2.2-.2 2.8-.6.6-.4 1-1 1.1-2 .2-.9.3-2.4.3-4.3s-.1-3.4-.3-4.3zm-2.5 7.5c-.1.6-.2.9-.4 1.1-.2.2-.5.3-1 .3s-.9-.1-1-.3c-.2-.2-.3-.6-.4-1.1-.1-.6-.1-1.7-.1-3.2 0-1.5 0-2.6.1-3.2.1-.6.2-1 .4-1.1.2-.2.5-.3 1-.3s.9.1 1 .3c.2.2.3.6.4 1.1.1.6.1 1.7.1 3.2 0 1.5 0 2.6-.1 3.2zM165 32.1h-2.7V18.7h2.5l.2 2.3c.2-.9.6-1.5 1-1.9.5-.4 1.1-.6 1.8-.6h.1v2.9h-.1c-1 0-1.7.3-2.1.9-.4.6-.6 1.7-.6 3.2v6.6zM177.8 32.3c-1.2 0-2.2-.2-2.9-.5-.7-.3-1.2-.9-1.5-1.6-.3-.7-.4-1.7-.4-2.9 0-1.4.2-2.4.5-3.1.3-.6.9-1 1.6-1.3-.7-.2-1.2-.7-1.5-1.3-.3-.7-.5-1.7-.5-3 0-1.7.4-2.9 1.1-3.6.8-.7 2-1.1 3.7-1.1.6 0 1.2 0 1.9.1s1.3.2 1.9.3h.1v2.2h-.1c-1-.2-2-.2-2.9-.2-.9 0-1.6.1-2 .2-.4.1-.7.4-.8.8-.1.4-.2 1-.2 1.8 0 1 .1 1.7.3 2.1.2.4.6.6 1.3.6h.8v2.4h-.8c-.5 0-.9.1-1.1.3-.2.2-.4.5-.5.9-.1.4-.1 1-.1 1.8 0 .9.1 1.5.2 1.9.2.4.4.6.8.7.4.1.9.2 1.7.2h.9v-8h4.4v2.4H182V32h-.1c-.6.1-1.2.2-2 .3-.9-.1-1.5 0-2.1 0zM192.3 32.3c-.6 0-1.2 0-1.9-.1s-1.3-.2-1.8-.3h-.1v-2.4h.1c1.1.1 2.1.2 2.9.2.5 0 .9 0 1.2-.1.3-.1.5-.2.6-.4.1-.2.2-.4.3-.8.1-.3.1-.8.1-1.4 0-.8 0-1.4-.1-1.8-.1-.3-.2-.5-.4-.7-.2-.1-.6-.3-1.1-.4l-2.2-.4c-.7-.1-1.2-.6-1.5-1.4-.2-.7-.4-1.8-.4-3.3 0-1.3.2-2.4.5-3.1.3-.8.8-1.3 1.5-1.6.6-.3 1.5-.5 2.5-.5.7 0 1.4 0 2 .1.6.1 1 .2 1.3.2h.1v2.4h-.1c-.2 0-.5-.1-1-.1s-1-.1-1.5-.1c-.6 0-1 0-1.4.1-.3.1-.5.2-.6.4-.1.2-.2.4-.3.7-.1.3-.1.7-.1 1.3 0 .7 0 1.2.1 1.5 0 .3.1.5.3.6.1.1.4.2.7.3l1.9.4c.6.1 1.1.3 1.4.6.4.3.7.7.8 1.3.2.5.3 1.5.3 2.9 0 1.5-.1 2.6-.4 3.4-.3.8-.8 1.4-1.4 1.7-.4.6-1.2.8-2.3.8zM205.9 21.1c-.2-.9-.6-1.6-1.1-2-.6-.4-1.5-.6-2.8-.6-1.3 0-2.2.2-2.8.6-.6.4-1 1-1.1 2-.2.9-.3 2.4-.3 4.3s.1 3.4.3 4.3c.2.9.6 1.6 1.1 2 .6.4 1.5.6 2.8.6 1.3 0 2.2-.2 2.8-.6.6-.4 1-1 1.1-2 .2-.9.3-2.4.3-4.3s-.1-3.4-.3-4.3zm-2.5 7.5c-.1.6-.2.9-.4 1.1-.2.2-.5.3-1 .3s-.9-.1-1-.3c-.2-.2-.3-.6-.4-1.1-.1-.6-.1-1.7-.1-3.2 0-1.5 0-2.6.1-3.2.1-.6.2-1 .4-1.1.2-.2.5-.3 1-.3s.9.1 1 .3c.2.2.3.6.4 1.1.1.6.1 1.7.1 3.2 0 1.5 0 2.6-.1 3.2zM207.9 12.7h2.7V32h-2.7zM217.9 32.1h-3.4V32l-2.7-13.3h2.7v.1l1.8 10 1.7-10.1h2.7v.2zM229.3 25.4c0-1.9-.1-3.4-.2-4.2-.1-.9-.5-1.6-1-2-.5-.4-1.4-.7-2.6-.7-1.3 0-2.2.2-2.8.7-.6.5-1 1.2-1.1 2.1-.2.9-.2 2.3-.2 4.1 0 1.8.1 3.2.3 4.1.2.9.6 1.6 1.2 2.1.6.4 1.6.7 2.9.7.6 0 1.2 0 1.9-.1.6-.1 1.2-.2 1.6-.3h.1v-2.1h-.1c-1.1.1-2 .2-2.8.2-.7 0-1.2-.1-1.5-.3-.3-.2-.5-.5-.5-1-.1-.5-.1-1.3-.1-2.4h5.4v-.9zm-2.5-1.1H224c0-1.1.1-1.9.1-2.3.1-.5.2-.8.4-.9.2-.1.5-.2 1-.2.4 0 .7.1.9.2.2.1.3.4.4.9.1.5.1 1.2.1 2.3zM233.8 32.1h-2.7V18.7h2.5l.1 2.3c.2-.9.6-1.5 1-1.9.5-.4 1.1-.6 1.8-.6h.1v2.9h-.1c-1 0-1.7.3-2.1.9-.4.6-.6 1.7-.6 3.2v6.6zM247.9 32.1h-4V32l-3-17.9h2.8l2.2 14.7h.1l2.1-14.7h2.8zM252 18.7h2.7V32H252zM252 12.7h2.7v2.8H252zM259.7 32.3c-.5 0-1.1 0-1.7-.1-.6-.1-1.1-.2-1.5-.3h-.1v-2.2h.1c.3.1.7.1 1.2.2.5 0 .9.1 1.4.1.6 0 1.1-.1 1.3-.4.2-.3.4-.7.4-1.3 0-.5 0-.9-.1-1.1 0-.2-.1-.3-.2-.4-.1-.1-.3-.1-.6-.2l-2-.4c-.6-.1-1.1-.5-1.4-1-.3-.6-.4-1.4-.4-2.7 0-1.4.3-2.5 1-3.1.6-.6 1.6-.9 2.8-.9.5 0 1 0 1.6.1.5.1 1 .2 1.3.3h.1v2.2h-.1c-.3-.1-.7-.1-1.1-.2-.5-.1-.9-.1-1.2-.1-.6 0-1 .1-1.2.3-.2.2-.3.6-.3 1.3 0 .5 0 .8.1 1 0 .2.1.3.2.4.1.1.3.1.5.2l1.7.3c.4.1.8.2 1.1.4.3.2.5.6.7 1.1.2.5.2 1.3.2 2.2 0 1.5-.3 2.6-.9 3.2-.7.7-1.6 1.1-2.9 1.1zM267.6 32.3c-.8 0-1.4-.2-1.8-.5-.4-.3-.7-.8-.8-1.5-.1-.7-.2-1.6-.2-2.8v-8.7h2.7v7.6c0 1.1 0 2 .1 2.4.1.4.2.7.3.9.2.1.5.2.9.2.5 0 .8-.1 1-.4.2-.3.3-.7.4-1.2.1-.6.1-1.5.1-2.8v-6.7h2.7v13.3h-2.5l-.1-1.7c-.5 1.2-1.4 1.9-2.8 1.9zM282.1 20.6c-.2-.7-.7-1.3-1.2-1.6-.6-.3-1.4-.5-2.5-.5-1.2 0-2.3.1-3.3.3h-.1V21h.1c1.1-.1 2-.2 2.6-.2.7 0 1.2.1 1.5.2.3.1.4.3.5.7.1.4.2 1 .2 1.9v.7c-.8-.1-1.6-.1-2.2-.1-.8 0-1.4.1-1.9.4-.5.3-.8.7-1 1.3-.2.6-.3 1.4-.3 2.4 0 1.4.2 2.5.6 3.1.4.6 1.2.9 2.3.9.6 0 1.1-.2 1.6-.5.4-.3.7-.7.9-1.4l.1 1.6h2.5v-8.3c0-1.3-.2-2.4-.4-3.1zm-2.3 6.3c0 .9-.1 1.7-.2 2.1-.1.3-.3.5-.5.6-.2.1-.5.2-.9.2-.5 0-.8-.1-1-.3-.2-.2-.2-.7-.2-1.4 0-.6 0-1 .1-1.2.1-.2.2-.4.3-.5.2-.1.4-.1.8-.1h1.6v.6zM284.5 12.7h2.7V32h-2.7zM289.2 18.7h2.7V32h-2.7zM289.1 12.7h2.7v2.8h-2.7zM300.7 32.1h-7.3V30l4.3-9h-4.2v-2.3h7.2v2.1l-4.2 8.9h4.2zM310 25.4c0-1.9-.1-3.4-.2-4.2-.1-.9-.5-1.6-1-2-.5-.4-1.4-.7-2.6-.7-1.3 0-2.2.2-2.8.7-.6.5-1 1.2-1.1 2.1-.2.9-.2 2.3-.2 4.1 0 1.8.1 3.2.3 4.1.2.9.6 1.6 1.2 2.1.6.4 1.6.7 2.9.7.6 0 1.2 0 1.9-.1.6-.1 1.2-.2 1.6-.3h.1v-2.1h-.1c-1.1.1-2 .2-2.8.2-.7 0-1.2-.1-1.5-.3-.3-.2-.5-.5-.5-1-.1-.5-.1-1.3-.1-2.4h5.4v-.9zm-2.5-1.1h-2.9c0-1.1.1-1.9.1-2.3.1-.5.2-.8.4-.9.2-.1.5-.2 1-.2.4 0 .7.1.9.2.2.1.3.4.4.9.1.5.1 1.2.1 2.3zM314.5 32.1h-2.7V18.7h2.5l.1 2.3c.2-.9.6-1.5 1-1.9.5-.4 1.1-.6 1.8-.6h.1v2.9h-.1c-1 0-1.7.3-2.1.9-.4.6-.6 1.7-.6 3.2v6.6z"/><g><path class="st0" d="M35.7 6.5H21.2c-.8 0-1.5.7-1.5 1.5v5.6h-5.8c-.8 0-1.5.7-1.5 1.5s.7 1.5 1.5 1.5h13.2v13.3c0 .8.7 1.5 1.5 1.5s1.5-.7 1.5-1.5V15.1c0-.8-.7-1.5-1.5-1.5h-5.9V9.5h11.5v26h-9.3c-.8 0-1.5.7-1.5 1.5s.7 1.5 1.5 1.5h10.8c.8 0 1.5-.7 1.5-1.5V8c0-.8-.7-1.5-1.5-1.5z"/><path class="st0" d="M21.2 21h-13V9.5h5.2c.8 0 1.5-.7 1.5-1.5s-.7-1.5-1.5-1.5H6.7c-.9 0-1.5.7-1.5 1.5v29c0 .8.7 1.5 1.5 1.5h10.5c.8 0 1.5-.7 1.5-1.5s-.7-1.5-1.5-1.5h-9V24h11.5v4.5h-5.9c-.8 0-1.5.7-1.5 1.5s.7 1.5 1.5 1.5h7.4c.8 0 1.5-.7 1.5-1.5v-7.4c0-.9-.7-1.6-1.5-1.6z"/></g></svg>