<svg version="1.1" id="Layer_1" xmlns="http://www.w3.org/2000/svg" x="0" y="0" viewBox="0 0 320 320" xml:space="preserve"><style>.st0{fill:#151524}</style><path class="st0" d="M277 31H160c-6.6 0-12 5.4-12 12v45.5h-46.5c-6.6 0-12 5.4-12 12s5.4 12 12 12h106.2V220c0 6.6 5.4 12 12 12s12-5.4 12-12V100.5c0-6.6-5.4-12-12-12H172V55h93v210h-75c-6.6 0-12 5.4-12 12s5.4 12 12 12h87c6.6 0 12-5.4 12-12V43c0-6.6-5.4-12-12-12z"/><path class="st0" d="M160 148H55V55h42.1c6.6 0 12-5.4 12-12s-5.4-12-12-12H43c-6.6 0-12 5.4-12 12v234c0 6.6 5.4 12 12 12h84.8c6.6 0 12-5.4 12-12s-5.4-12-12-12H55v-93h93v36h-47.6c-6.6 0-12 5.4-12 12s5.4 12 12 12H160c6.6 0 12-5.4 12-12v-60c0-6.6-5.4-12-12-12z"/></svg>