<svg version="1.1" id="Layer_1" xmlns="http://www.w3.org/2000/svg" x="0" y="0" viewBox="0 0 320 320" xml:space="preserve"><path fill="#151524" d="M277 31h-54.1c-6.6 0-12 5.4-12 12s5.4 12 12 12H265v93H160c-6.6 0-12 5.4-12 12v60c0 6.6 5.4 12 12 12h59.6c6.6 0 12-5.4 12-12s-5.4-12-12-12H172v-36h93v93h-72.8c-6.6 0-12 5.4-12 12s5.4 12 12 12H277c6.6 0 12-5.4 12-12V43c0-6.6-5.4-12-12-12z"/><path fill="#151524" d="M130 265H55V55h93v33.5h-47.7c-6.6 0-12 5.4-12 12V220c0 6.6 5.4 12 12 12s12-5.4 12-12V112.5h106.2c6.6 0 12-5.4 12-12s-5.4-12-12-12H172V43c0-6.6-5.4-12-12-12H43c-6.6 0-12 5.4-12 12v234c0 6.6 5.4 12 12 12h87c6.6 0 12-5.4 12-12s-5.4-12-12-12z"/></svg>