<svg version="1.1" id="Layer_1" xmlns="http://www.w3.org/2000/svg" x="0" y="0" viewBox="0 0 24 24" xml:space="preserve"><circle cx="12" cy="12" r="11" fill="#007498" stroke="#006280" stroke-linecap="round" stroke-linejoin="round"/><path fill="#fff" d="M11.9 14c-.4 0-.8-.3-.9-.7-.2-.5.1-1.1.6-1.3.6-.2 2.3-1 2.3-2.1 0-.8-.6-1.6-1.3-1.9-.5-.2-1.1-.2-1.6 0s-.8.6-1 1.1c-.1.7-.7 1-1.2.9-.5-.2-.8-.8-.7-1.3.3-1 1.1-1.9 2-2.3 1-.5 2.1-.5 3.1-.1 1.5.5 2.6 2 2.6 3.7 0 2.6-3.3 3.8-3.7 3.9 0 .1-.1.1-.2.1zM12 18c-.3 0-.5-.1-.7-.3-.2-.2-.3-.4-.3-.7 0-.1 0-.3.1-.4.1-.1.1-.2.2-.3.4-.4 1-.4 1.4 0 .1.1.2.2.2.3 0 .1.1.2.1.4s0 .3-.1.4c-.1.1-.1.2-.2.3-.2.2-.4.3-.7.3z"/></svg>