<svg version="1.1" id="Layer_1" xmlns="http://www.w3.org/2000/svg" x="0" y="0" viewBox="0 0 322.5 45" xml:space="preserve"><style>.st0{fill:#151524}</style><path class="st0" d="M35.3 6.5H21.2c-1.1 0-1.9.9-1.9 1.9v5h-5.1c-1.1 0-1.9.9-1.9 1.9 0 1.1.9 1.9 1.9 1.9h12.3v12.5c0 1.1.9 1.9 1.9 1.9s1.9-.9 1.9-1.9V15.3c0-1.1-.9-1.9-1.9-1.9h-5.3v-3.1h10.2v24.3h-8.5c-1.1 0-1.9.9-1.9 1.9 0 1.1.9 1.9 1.9 1.9h10.5c1.1 0 1.9-.9 1.9-1.9V8.4c0-1-.8-1.9-1.9-1.9z"/><path class="st0" d="M23.2 22.5c0-1.1-.9-1.9-1.9-1.9H9.1V10.3h4.6c1.1 0 1.9-.9 1.9-1.9s-.9-1.9-1.9-1.9H7.2c-1.1 0-1.9.9-1.9 1.9v28.2c0 1.1.9 1.9 1.9 1.9h10.2c1.1 0 1.9-.9 1.9-1.9 0-1.1-.9-1.9-1.9-1.9H9.1V24.4h10.2v3.4h-5.2c-1.1 0-1.9.9-1.9 1.9 0 1.1.9 1.9 1.9 1.9h7.2c1.1 0 1.9-.9 1.9-1.9v-7.2z"/><g><path d="M54.8 32V18h-.2l-2.4 14h-2.7l-2.4-14H47v14h-2.5V14.2h4l2.3 13.6h.2l2.3-13.6h4V32h-2.5zM59.8 31.3c-.4-.6-.6-1.6-.6-3 0-1 .1-1.8.3-2.3s.5-1 .9-1.2c.4-.2 1.1-.4 1.8-.4s1.5 0 2.3.1v-.8c0-.9-.1-1.6-.2-1.9-.1-.4-.3-.6-.6-.7-.3-.1-.8-.2-1.5-.2-.6 0-1.5.1-2.6.2v-2c1-.2 2.2-.3 3.3-.3 1.1 0 1.9.2 2.4.5.6.3 1 .8 1.2 1.5.2.7.3 1.8.3 3.1V32h-2.3l-.1-1.7h-.2c-.2.7-.5 1.1-.9 1.4-.4.3-1 .4-1.5.4-.9.1-1.6-.2-2-.8zm4-1.5c.2-.1.4-.3.5-.7.1-.5.2-1.2.2-2.2v-.8h-1.7c-.4 0-.6.1-.8.2-.2.1-.3.3-.4.6-.1.3-.1.7-.1 1.3 0 .7.1 1.2.3 1.5.2.3.5.4 1.1.4.4-.2.7-.2.9-.3zM68.7 32v-2l4.3-9.1h-4.2v-2.1h7v2l-4.3 9.1h4.3V32h-7.1zM85.1 26.2h-5.4c0 1.2 0 2.1.1 2.6s.3.9.6 1c.3.2.8.3 1.5.3.8 0 1.8-.1 2.9-.2v2c-.4.1-.9.2-1.5.3s-1.3.1-1.9.1c-1.3 0-2.2-.2-2.8-.7-.6-.4-1-1.1-1.1-2-.2-.9-.3-2.3-.3-4.1 0-1.8.1-3.2.2-4.1.2-.9.5-1.6 1.1-2 .6-.5 1.5-.7 2.8-.7 1.2 0 2.1.2 2.6.6.5.4.8 1.1 1 1.9.1.9.2 2.3.2 4.2v.8zM80.3 21c-.2.2-.3.5-.4 1-.1.5-.1 1.3-.1 2.4h3.1v-.2c0-1.1 0-1.8-.1-2.3-.1-.5-.2-.8-.4-.9s-.5-.2-.9-.2c-.6-.1-1 0-1.2.2zM95.4 24.4v-2.3h4v9.6c-.5.2-1.1.3-1.8.4-.7.1-1.4.1-2 .1-1.3 0-2.3-.2-3-.7-.7-.5-1.1-1.3-1.4-2.6-.3-1.3-.4-3.2-.4-5.8s.1-4.5.4-5.7c.3-1.3.7-2.1 1.4-2.6s1.7-.7 3.1-.7c.5 0 1.2 0 1.8.1.7.1 1.2.2 1.7.3v2.2c-.5-.1-1-.2-1.5-.2-.5-.1-.9-.1-1.2-.1-1 0-1.7.1-2.1.3-.4.2-.7.8-.8 1.7-.2.9-.2 2.4-.2 4.7 0 2.1 0 3.6.1 4.5.1.9.3 1.5.6 1.8.3.3.8.5 1.5.5.5 0 1-.1 1.3-.2v-5.3h-1.5zM109.1 26.2h-5.4c0 1.2 0 2.1.1 2.6s.3.9.6 1c.3.2.8.3 1.5.3.8 0 1.8-.1 2.9-.2v2c-.4.1-.9.2-1.5.3s-1.3.1-1.9.1c-1.3 0-2.2-.2-2.8-.7-.6-.4-1-1.1-1.1-2-.2-.9-.3-2.3-.3-4.1 0-1.8.1-3.2.2-4.1.2-.9.5-1.6 1.1-2 .6-.5 1.5-.7 2.8-.7 1.2 0 2.1.2 2.6.6.5.4.8 1.1 1 1.9.1.9.2 2.3.2 4.2v.8zm-4.9-5.2c-.2.2-.3.5-.4 1-.1.5-.1 1.3-.1 2.4h3.1v-.2c0-1.1 0-1.8-.1-2.3-.1-.5-.2-.8-.4-.9s-.5-.2-.9-.2c-.6-.1-1 0-1.2.2zM116.5 24.4c0-1.1 0-2-.1-2.4-.1-.5-.2-.8-.4-.9-.2-.1-.5-.2-1-.2s-.8.1-1.1.4c-.2.3-.3.7-.4 1.2s-.1 1.5-.1 2.8V32H111V18.8h2.3l.1 1.7h.2c.3-1.3 1.2-1.9 2.6-1.9.8 0 1.3.2 1.7.5.4.3.6.8.8 1.4.1.7.2 1.6.2 2.8V32h-2.5v-7.6zM128.7 26.2h-5.4c0 1.2 0 2.1.1 2.6s.3.9.6 1c.3.2.8.3 1.5.3.8 0 1.8-.1 2.9-.2v2c-.4.1-.9.2-1.5.3s-1.3.1-1.9.1c-1.3 0-2.2-.2-2.8-.7-.6-.4-1-1.1-1.1-2-.2-.9-.3-2.3-.3-4.1 0-1.8.1-3.2.2-4.1.2-.9.5-1.6 1.1-2 .6-.5 1.5-.7 2.8-.7 1.2 0 2.1.2 2.6.6.5.4.8 1.1 1 1.9.1.9.2 2.3.2 4.2v.8zm-4.9-5.2c-.2.2-.3.5-.4 1-.1.5-.1 1.3-.1 2.4h3.1v-.2c0-1.1 0-1.8-.1-2.3-.1-.5-.2-.8-.4-.9s-.5-.2-.9-.2c-.6-.1-1 0-1.2.2zM130.6 18.8h2.3l.1 2.3h.2c.2-.9.6-1.6 1-1.9.4-.4 1-.5 1.8-.5v2.7c-1 0-1.8.3-2.2 1s-.7 1.7-.7 3.3V32h-2.5V18.8zM137.2 31.3c-.4-.6-.6-1.6-.6-3 0-1 .1-1.8.3-2.3s.5-1 .9-1.2c.4-.2 1.1-.4 1.8-.4s1.5 0 2.3.1v-.8c0-.9-.1-1.6-.2-1.9-.1-.4-.3-.6-.6-.7-.3-.1-.8-.2-1.5-.2-.6 0-1.5.1-2.6.2v-2c1-.2 2.2-.3 3.3-.3 1.1 0 1.9.2 2.4.5.6.3 1 .8 1.2 1.5.2.7.3 1.8.3 3.1V32h-2.3l-.1-1.7h-.2c-.2.7-.5 1.1-.9 1.4-.4.3-1 .4-1.5.4-.9.1-1.6-.2-2-.8zm4-1.5c.2-.1.4-.3.5-.7.1-.5.2-1.2.2-2.2v-.8h-1.7c-.4 0-.6.1-.8.2-.2.1-.3.3-.4.6-.1.3-.1.7-.1 1.3 0 .7.1 1.2.3 1.5.2.3.5.4 1.1.4.3-.2.6-.2.9-.3zM147.1 32V21h-1.4v-2.1h1.4V15h2.5v3.8h1.8v2.1h-1.8v11h-2.5zM153.8 31.6c-.6-.4-.9-1-1.1-1.9-.2-.9-.3-2.3-.3-4.3s.1-3.4.3-4.3c.2-.9.5-1.5 1.1-1.9.6-.4 1.5-.6 2.7-.6 1.3 0 2.2.2 2.7.6.6.4.9 1 1.1 1.9.2.9.3 2.3.3 4.3s-.1 3.4-.3 4.3c-.2.9-.5 1.5-1.1 1.9-.6.4-1.5.6-2.7.6-1.3 0-2.2-.2-2.7-.6zm3.8-1.8c.2-.2.3-.6.4-1.2.1-.6.1-1.7.1-3.2s0-2.6-.1-3.2c-.1-.6-.2-1-.4-1.2s-.6-.3-1.1-.3c-.5 0-.9.1-1.1.3-.2.2-.4.6-.4 1.2-.1.6-.1 1.7-.1 3.2 0 1.5 0 2.6.1 3.2.1.6.2 1 .4 1.2s.6.3 1.1.3c.5 0 .9-.1 1.1-.3zM162.5 18.8h2.3l.1 2.3h.2c.2-.9.6-1.6 1-1.9.4-.4 1-.5 1.8-.5v2.7c-1 0-1.8.3-2.2 1s-.7 1.6-.7 3.1V32h-2.5V18.8zM183.5 21.9v2.2h-1.7v7.6c-.6.1-1.2.2-2 .3s-1.4.1-2 .1c-1.2 0-2.2-.2-2.9-.5-.7-.3-1.2-.8-1.5-1.5-.3-.7-.4-1.7-.4-2.9 0-1.4.2-2.4.5-3 .4-.6.9-1 1.7-1.3v-.1c-.7-.2-1.2-.7-1.6-1.3-.3-.7-.5-1.6-.5-2.9 0-1.7.4-2.8 1.1-3.5.7-.7 2-1 3.7-1 .5 0 1.2 0 1.9.1s1.3.2 1.9.3v2c-1-.2-2-.2-2.9-.2s-1.6.1-2.1.2c-.4.2-.7.4-.8.8-.1.4-.2 1-.2 1.8 0 1 .1 1.7.3 2.1.2.4.7.7 1.4.7h.7v2.2h-.7c-.5 0-.9.1-1.2.3-.3.2-.4.5-.5.9-.1.4-.1 1-.1 1.8 0 .9.1 1.5.2 1.9.2.4.4.7.8.8.4.1.9.2 1.7.2.4 0 .8 0 1-.1v-8h4.2zM190.5 32.1c-.7-.1-1.3-.2-1.8-.3v-2.2c1.1.1 2.1.2 2.9.2.5 0 .9 0 1.2-.1s.5-.2.7-.4c.2-.2.3-.5.3-.8.1-.4.1-.8.1-1.4 0-.9 0-1.5-.1-1.8-.1-.3-.2-.6-.4-.7-.2-.1-.6-.3-1.1-.4l-2.2-.4c-.7-.1-1.1-.6-1.4-1.3-.2-.7-.3-1.8-.3-3.3 0-1.3.2-2.4.5-3.1.3-.7.8-1.3 1.4-1.6.6-.3 1.4-.5 2.4-.5.7 0 1.4 0 2 .1.6.1 1 .2 1.3.2v2.2c-.2-.1-.5-.1-1-.1s-1-.1-1.5-.1c-.6 0-1.1 0-1.4.1-.3.1-.5.2-.7.5-.2.2-.3.5-.3.8-.1.3-.1.7-.1 1.3 0 .7 0 1.2.1 1.5.1.3.2.5.3.6.1.1.4.2.7.3l1.9.4c.6.1 1 .3 1.4.6.4.3.6.7.8 1.3.2.5.3 1.5.3 2.9 0 1.5-.1 2.6-.4 3.4-.3.8-.7 1.4-1.3 1.7s-1.4.5-2.4.5c-.6 0-1.3-.1-1.9-.1zM199.4 31.6c-.6-.4-.9-1-1.1-1.9-.2-.9-.3-2.3-.3-4.3s.1-3.4.3-4.3c.2-.9.5-1.5 1.1-1.9.6-.4 1.5-.6 2.7-.6 1.3 0 2.2.2 2.7.6.6.4.9 1 1.1 1.9.2.9.3 2.3.3 4.3s-.1 3.4-.3 4.3c-.2.9-.5 1.5-1.1 1.9-.6.4-1.5.6-2.7.6-1.3 0-2.2-.2-2.7-.6zm3.8-1.8c.2-.2.3-.6.4-1.2.1-.6.1-1.7.1-3.2s0-2.6-.1-3.2c-.1-.6-.2-1-.4-1.2s-.6-.3-1.1-.3c-.5 0-.9.1-1.1.3-.2.2-.4.6-.4 1.2-.1.6-.1 1.7-.1 3.2 0 1.5 0 2.6.1 3.2.1.6.2 1 .4 1.2s.6.3 1.1.3c.5 0 .9-.1 1.1-.3zM208.1 32V12.8h2.5V32h-2.5zM214.6 32l-2.7-13.1h2.5l1.8 10.1h.2l1.8-10.1h2.4L217.9 32h-3.3zM229.3 26.2h-5.4c0 1.2 0 2.1.1 2.6s.3.9.6 1c.3.2.8.3 1.5.3.8 0 1.8-.1 2.9-.2v2c-.4.1-.9.2-1.5.3s-1.3.1-1.9.1c-1.3 0-2.2-.2-2.8-.7-.6-.4-1-1.1-1.1-2-.2-.9-.3-2.3-.3-4.1 0-1.8.1-3.2.2-4.1.2-.9.5-1.6 1.1-2 .6-.5 1.5-.7 2.8-.7 1.2 0 2.1.2 2.6.6.5.4.8 1.1 1 1.9.1.9.2 2.3.2 4.2v.8zm-4.9-5.2c-.2.2-.3.5-.4 1-.1.5-.1 1.3-.1 2.4h3.1v-.2c0-1.1 0-1.8-.1-2.3-.1-.5-.2-.8-.4-.9s-.5-.2-.9-.2c-.6-.1-1 0-1.2.2zM231.2 18.8h2.3l.1 2.3h.2c.2-.9.6-1.6 1-1.9.4-.4 1-.5 1.8-.5v2.7c-1 0-1.8.3-2.2 1s-.7 1.7-.7 3.3V32h-2.5V18.8zM244 32l-3-17.7h2.7l2.2 14.7h.2l2.1-14.7h2.6l-3 17.7H244zM252.1 15.4v-2.6h2.5v2.6h-2.5zm0 16.6V18.8h2.5V32h-2.5zM258 32.1c-.6-.1-1.1-.2-1.5-.3v-2c.3.1.7.1 1.2.2.5 0 1 .1 1.4.1.7 0 1.1-.1 1.4-.4s.4-.7.4-1.4c0-.5 0-.9-.1-1.1-.1-.2-.1-.4-.3-.5-.1-.1-.3-.2-.7-.2l-2-.4c-.6-.1-1-.4-1.3-1-.3-.5-.4-1.4-.4-2.6 0-1.4.3-2.4.9-3 .6-.6 1.5-.9 2.8-.9.5 0 1 0 1.5.1s1 .2 1.3.3v2c-.3-.1-.7-.1-1.2-.2s-.9-.1-1.3-.1c-.6 0-1 .1-1.2.4-.2.2-.4.7-.4 1.3 0 .5 0 .8.1 1 0 .2.1.4.2.4.1.1.3.1.6.2l1.8.3c.4.1.8.2 1.1.4.3.2.5.5.7 1.1.2.5.2 1.2.2 2.2 0 1.5-.3 2.6-.9 3.2-.6.6-1.5.9-2.8.9-.3.1-.8 0-1.5 0zM270.4 30.3h-.2c-.3 1.3-1.2 1.9-2.6 1.9-.8 0-1.4-.2-1.7-.5-.4-.3-.6-.8-.8-1.4-.1-.7-.2-1.6-.2-2.8v-8.6h2.5v7.5c0 1.2 0 2 .1 2.4.1.5.2.8.4.9.2.1.5.2 1 .2s.9-.1 1.1-.4c.2-.3.3-.7.4-1.2.1-.6.1-1.5.1-2.8v-6.6h2.5V32h-2.3l-.3-1.7zM275.2 31.3c-.4-.6-.6-1.6-.6-3 0-1 .1-1.8.3-2.3s.5-1 .9-1.2c.4-.2 1.1-.4 1.8-.4s1.5 0 2.3.1v-.8c0-.9-.1-1.6-.2-1.9-.1-.4-.3-.6-.6-.7-.3-.1-.8-.2-1.5-.2-.6 0-1.5.1-2.6.2v-2c1-.2 2.2-.3 3.3-.3 1.1 0 1.9.2 2.4.5.6.3 1 .8 1.2 1.5.2.7.3 1.8.3 3.1V32h-2.3l-.1-1.7h-.2c-.2.7-.5 1.1-.9 1.4-.4.3-1 .4-1.5.4-.9.1-1.6-.2-2-.8zm4-1.5c.2-.1.4-.3.5-.7.1-.5.2-1.2.2-2.2v-.8h-1.7c-.4 0-.6.1-.8.2-.2.1-.3.3-.4.6-.1.3-.1.7-.1 1.3 0 .7.1 1.2.3 1.5.2.3.5.4 1.1.4.4-.2.7-.2.9-.3zM284.6 32V12.8h2.5V32h-2.5zM289.3 15.4v-2.6h2.5v2.6h-2.5zm0 16.6V18.8h2.5V32h-2.5zM293.6 32v-2l4.3-9.1h-4.2v-2.1h7v2l-4.3 9.1h4.3V32h-7.1zM310 26.2h-5.4c0 1.2 0 2.1.1 2.6s.3.9.6 1c.3.2.8.3 1.5.3.8 0 1.8-.1 2.9-.2v2c-.4.1-.9.2-1.5.3s-1.3.1-1.9.1c-1.3 0-2.2-.2-2.8-.7-.6-.4-1-1.1-1.1-2-.2-.9-.3-2.3-.3-4.1 0-1.8.1-3.2.2-4.1.2-.9.5-1.6 1.1-2 .6-.5 1.5-.7 2.8-.7 1.2 0 2.1.2 2.6.6.5.4.8 1.1 1 1.9.1.9.2 2.3.2 4.2v.8zm-4.9-5.2c-.2.2-.3.5-.4 1-.1.5-.1 1.3-.1 2.4h3.1v-.2c0-1.1 0-1.8-.1-2.3-.1-.5-.2-.8-.4-.9s-.5-.2-.9-.2c-.6-.1-1 0-1.2.2zM311.9 18.8h2.3l.1 2.3h.2c.2-.9.6-1.6 1-1.9.4-.4 1-.5 1.8-.5v2.7c-1 0-1.8.3-2.2 1s-.7 1.7-.7 3.3V32h-2.5V18.8z"/></g></svg>