<svg xmlns="http://www.w3.org/2000/svg" viewBox="0 0 128 128"><path d="M89.1 55l5.2-21.9c1.2-6 0-11.9-3.1-15.8-2.6-3.3-6.4-5.1-11-5.3H47.6c-4.6.2-8.3 2-10.9 5.3-3.1 3.9-4.2 9.8-3.1 15.8L38.9 55c-9.6 7-15.8 17.8-15.8 30s6.3 23.7 16.9 30.8l.2.2h47.5l.2-.2c10.6-7.2 16.9-18.7 16.9-30.8.1-12.2-6.1-23-15.7-30zm-43.8-3.8l-4.6-19.6c-.8-3.9-.1-7.6 1.7-9.9 1.3-1.6 3.1-2.5 5.5-2.6h32.3c2.4.1 4.2 1 5.5 2.6 1.8 2.3 2.4 6 1.7 9.9l-4.6 19.6C77.1 48.5 70.7 47 64 47c-6.7 0-13.1 1.5-18.7 4.2z" fill="#09395b"/></svg>