<svg xmlns="http://www.w3.org/2000/svg" viewBox="0 0 128 128"><path d="M93.1 51.1l3.8-16.2c1.3-6.5 0-12.9-3.3-17.2-2.8-3.6-6.9-5.5-11.9-5.7H46.3c-4.9.2-9.1 2.2-11.9 5.7-3.4 4.2-4.6 10.7-3.3 17.2l3.8 16.2c-9.4 7.6-15.4 18.8-15.4 31.2 0 13.2 6.9 25.7 18.4 33.5l.2.2h51.6l.2-.2c11.5-7.8 18.4-20.3 18.4-33.5.1-12.4-5.8-23.6-15.2-31.2zm-51.3-4.6l-3.1-13.3c-.8-4.2-.2-8.3 1.8-10.8 1.4-1.8 3.4-2.7 5.9-2.8h35.1c2.6.1 4.6 1 6 2.8 2 2.5 2.7 6.5 1.8 10.7l-3.1 13.3C79.7 43 72.1 41 64 41s-15.7 2-22.2 5.5z" fill="#09395b"/></svg>